<?xml version="1.0" encoding="UTF-8"?><svg id="Layer_2" xmlns="http://www.w3.org/2000/svg" viewBox="0 0 268.71 207.89"><defs><style>.cls-1{fill:#14a0de;}.cls-2{fill:#203a72;}</style></defs><g id="Layer_1-2"><g><path class="cls-1" d="M102.09,176.35l-13.05-8.05c-4.19,2.8-8.51,5.25-12.82,7-8.62,3.27-17.13,4.21-24.7,1.64-15.38-4.79-26.45-24.86-28.2-46.09-1.98-21.36,2.68-44.23,11.88-65.35,9.09-21.12,22.38-40.96,37.87-58.94v-.11c1.28-1.4,1.28-3.62,0-5.13-1.4-1.64-3.96-1.75-5.47-.23C49.42,17.4,32.52,35.96,20.4,58.13,7.93,79.95-.23,105.28,0,132.12c.35,13.42,2.68,27.19,8.97,40.26,6.29,12.96,17.25,25.32,32.4,31.4,15.03,6.42,32.28,4.67,45.8-.7,8.74-3.5,16.55-8.29,23.42-13.77l-7.34-11.78c-.23-.47-.7-.82-1.16-1.17Z"/><path class="cls-2" d="M261.32,10.84l-10.24,1.88c-9.35,1.72-17.95,6.24-24.67,12.96l-36.23,36.28-30.42-13.1,6.94-6.95c1.73-1.74,1.74-4.56,0-6.3l-8.55-8.56c-1.74-1.74-4.55-1.74-6.28,0l-12.85,12.87-25.99-11.2c-8.42-3.62-18.2-1.74-24.68,4.75l-10.11,10.12,81.65,49.17-40.34,46.35-27.18-5.58c-3.35-.69-6.82,.35-9.24,2.77l-9.02,9.03,34.13,21.11c2.02,1.25,3.73,2.96,4.97,4.98l21.08,34.18,9.01-9.03c2.42-2.42,3.46-5.89,2.77-9.25l-5.58-27.21,46.3-40.39,49.1,81.76,10.11-10.13c6.48-6.49,8.36-16.28,4.73-24.71l-11.18-26.03,12.85-12.87c1.73-1.74,1.73-4.56,0-6.29l-8.55-8.56c-1.74-1.74-4.55-1.74-6.28,0l-6.93,6.94-13.09-30.46,36.22-36.27c6.72-6.73,11.24-15.35,12.95-24.71l1.88-10.25c.79-4.32-2.98-8.1-7.29-7.31Z"/></g></g></svg>