<?xml version="1.0" encoding="UTF-8"?><svg id="Layer_2" xmlns="http://www.w3.org/2000/svg" viewBox="0 0 279.01 222.09"><defs><style>.cls-1{fill:#14a0de;}.cls-2{fill:#203a72;}</style></defs><g id="Layer_1-2"><g><path class="cls-1" d="M256.27,87.92h-33.22c-.13-9.81-2.72-30.5-32.4-30.5s-32.27,20.7-32.54,30.5h-15.79v105.11c0,8.44-3.54,15.94-9.13,21.38,2.18,4.49,6.81,7.63,12.12,7.63,6.81,0,12.39-5.04,13.34-11.44h63.86c.96,6.4,6.67,11.44,13.34,11.44s12.39-5.04,13.48-11.44h6.94c12.53,0,22.74-10.21,22.74-22.74V110.66c0-12.66-10.21-22.74-22.74-22.74Zm-65.62-14.29c12.94,0,15.93,3.81,16.34,14.29h-32.68c.27-10.48,3.4-14.29,16.33-14.29Zm-12.53,110.15c0,3.13-2.45,5.72-5.58,5.72s-5.72-2.59-5.72-5.72V114.61c0-3.13,2.59-5.58,5.72-5.58s5.58,2.45,5.58,5.58v69.17Zm36.22,0c0,3.13-2.45,5.72-5.58,5.72s-5.72-2.59-5.72-5.72V114.61c0-3.13,2.59-5.58,5.72-5.58s5.58,2.45,5.58,5.58v69.17Zm36.21,0c0,3.13-2.59,5.72-5.72,5.72s-5.58-2.59-5.58-5.72V114.61c0-3.13,2.59-5.58,5.58-5.58s5.72,2.45,5.72,5.58v69.17Z"/><g><path class="cls-2" d="M0,92.7v100.33c0,8.84,7.16,16,16,16h5.31v7.43c0,3.11,2.52,5.63,5.64,5.63h7.23c3.11,0,5.63-2.52,5.63-5.63v-7.43h49.01v7.43c0,3.11,2.52,5.63,5.64,5.63h7.23c3.11,0,5.63-2.52,5.63-5.63v-7.43h5.31c8.84,0,16-7.16,16-16V92.7c-17.76,7.86-39.96,12.48-64.32,12.48S17.76,100.56,0,92.7Zm98.07,87.54H30.56c-3.68,0-6.67-2.98-6.67-6.67s2.98-6.67,6.67-6.67H98.07c3.68,0,6.67,2.98,6.67,6.67s-2.98,6.67-6.67,6.67Zm6.67-42.78c0,3.68-2.98,6.67-6.67,6.67H30.56c-3.68,0-6.67-2.98-6.67-6.67s2.98-6.67,6.67-6.67H98.07c3.68,0,6.67,2.98,6.67,6.67Z"/><path class="cls-2" d="M112.63,54.24h-19.54V10.35c0-5.71-4.64-10.35-10.34-10.35H45.89c-5.71,0-10.35,4.64-10.35,10.35V54.24H16C7.16,54.24,0,61.4,0,70.24v7.45c16.87,8.71,39.65,14.16,64.32,14.16s47.45-5.45,64.32-14.15v-7.45c0-8.84-7.16-16-16-16Zm-63.76,0V23.67h30.88v30.57h-30.88Z"/></g></g></g></svg>