<?xml version="1.0" encoding="UTF-8"?><svg id="Layer_2" xmlns="http://www.w3.org/2000/svg" viewBox="0 0 239.3 233.37"><defs><style>.cls-1{fill:#14a0de;}.cls-2{fill:#203a72;}</style></defs><g id="Layer_1-2"><g><path class="cls-2" d="M180.31,99.35c2.73,0,5.38,.16,8.03,.48V46.42c0-16.95-13.81-30.84-30.76-30.84h-19.6v-7.55c0-4.42-3.61-8.03-8.03-8.03s-8.03,3.61-8.03,8.03v7.55h-55.5v-7.55c0-4.42-3.53-8.03-8.03-8.03s-8.03,3.61-8.03,8.03v7.55H30.84C13.81,15.58,0,29.48,0,46.42v105.21c0,16.95,13.81,30.76,30.84,30.76H105.78c-.32-2.65-.48-5.3-.48-8.03,0-41.36,33.65-75.02,75.02-75.02ZM16.06,62.16v-15.74c0-8.11,6.58-14.78,14.78-14.78h19.52v7.55c0,4.5,3.61,8.03,8.03,8.03s8.03-3.53,8.03-8.03v-7.55h55.5v7.55c0,4.5,3.61,8.03,8.03,8.03s8.03-3.53,8.03-8.03v-7.55h19.6c8.11,0,14.7,6.67,14.7,14.78v15.74H16.06Z"/><path class="cls-1" d="M180.33,115.44c-32.52,0-58.97,26.45-58.97,58.97s26.45,58.97,58.97,58.97,58.97-26.46,58.97-58.97-26.45-58.97-58.97-58.97Zm22.27,67h-22.26c-4.44,0-8.03-3.6-8.03-8.03v-27.4c0-4.44,3.6-8.03,8.03-8.03s8.03,3.6,8.03,8.03v19.37h14.23c4.44,0,8.03,3.6,8.03,8.03s-3.6,8.03-8.03,8.03Z"/></g></g></svg>