<?xml version="1.0" encoding="UTF-8"?><svg id="Layer_2" xmlns="http://www.w3.org/2000/svg" viewBox="0 0 277.62 237.03"><defs><style>.cls-1{fill:#14a0de;}.cls-2{fill:#203a72;}</style></defs><g id="Layer_1-2"><g><g><path class="cls-2" d="M127.93,93.66l-.64-10.8c-1.59-13.4-11.05-24.14-23.44-28.01-1.21-.38-2.48,.38-2.92,1.59l-12.58,30.3-2.86-17.85h1.84c1.21,0,2.16-.95,2.16-2.1v-6.48c0-1.14-.95-2.1-2.16-2.1h-10.48c-1.21,0-2.16,.95-2.16,2.1v6.48c0,1.14,.95,2.1,2.16,2.1h1.84l-2.86,17.85-12.58-30.3c-.44-1.21-1.72-1.97-2.92-1.59-12.39,3.87-21.79,14.61-23.44,28.01l-1.02,17.72H121.96c1.52-2.67,3.56-5.02,5.97-6.92Z"/><path class="cls-2" d="M82.18,51.14c14.12,0,25.57-11.45,25.57-25.57S96.3,0,82.18,0s-25.57,11.45-25.57,25.57,11.45,25.57,25.57,25.57Z"/><circle class="cls-2" cx="210.38" cy="25.42" r="25.42"/><path class="cls-2" d="M275.69,88.21c-.84-1.26-21.07-30.75-65.31-30.75-25.62,0-36.82,16.04-44.99,27.76-1.18,1.69-2.35,3.37-3.55,4.99-5.18,6.96-16.89,10.4-20.93,11.13-6.22,1.07-10.4,6.99-9.32,13.21,1.08,6.22,6.99,10.37,13.21,9.32,2.41-.42,23.85-4.51,35.39-20.01,1-1.35,1.98-2.75,2.95-4.14l-.26,36.81-14.47,36.46c-.58,1.46-.88,3.02-.9,4.59l-.35,46.64c-.05,7.02,5.59,12.75,12.61,12.8,7.1,.13,12.75-5.59,12.8-12.61l.33-44.26,14.43-36.35h5.36l.79,80.66c.08,6.97,5.75,12.56,12.7,12.56h.15c7.02-.08,12.64-5.83,12.56-12.85l-.97-85.26-.08-10.76c.89,2.22,2.44,4.19,4.64,5.52,1.85,1.13,3.9,1.66,5.91,1.66,3.87,0,7.64-1.96,9.79-5.51l17.78-29.33c2.3-3.8,2.2-8.59-.27-12.28Zm-37.06,29.76c-.35,.58-.62,1.18-.85,1.79l-.24-33.69c6.57,3.05,11.39,6.77,14.53,9.73l-13.44,22.17Z"/></g><path class="cls-1" d="M119.04,116.72c-.25-1.4-.32-2.8-.32-4.13H8.96c-4.95,0-8.96,4-8.96,8.96s4,8.89,8.96,8.89h11.37v100.17c0,3.56,2.86,6.42,6.35,6.42h110.84c3.56,0,6.42-2.86,6.42-6.42v-93.88c-12.07,.51-22.8-7.94-24.9-20.01Zm-2.31,34.61l-1.24,3.28c-1.19,3.15-3,5.96-5.38,8.34l-7.59,7.59,2.33,11.8c1.15-.73,2.69-.6,3.69,.4l3.06,3.06c1.15,1.16,1.15,3.03,0,4.18l-4.37,4.38,2.7,13.7c.31,1.6-.18,3.24-1.34,4.4l-1.89,1.89c-.46,.46-1.11,.67-1.74,.56-.64-.1-1.19-.51-1.48-1.08l-5.84-11.54c-.49,.27-.98,.52-1.49,.75-1.42,.65-3.04,.37-4.13-.73-1.09-1.09-1.38-2.71-.73-4.12,.62-1.34,1.38-2.67,2.27-3.96l-5.09-10.07-14.52,13.12,3.68,14.17c.25,.96-.03,2-.73,2.71l-1.54,1.53c-.39,.4-.92,.61-1.47,.61-.09,0-.17,0-.26-.02-.65-.08-1.21-.45-1.54-1.01l-7.38-12.53-.64,.17c-1.04,.27-2.1-.03-2.86-.78-.76-.76-1.05-1.82-.78-2.86l.17-.64-12.53-7.38c-.56-.33-.93-.89-1.01-1.54-.08-.65,.14-1.28,.6-1.74l1.53-1.53c.7-.7,1.74-.99,2.71-.74l14.17,3.68,13.12-14.52-10.07-5.09c-1.29,.89-2.62,1.65-3.96,2.27-1.42,.65-3.03,.37-4.13-.73s-1.38-2.72-.73-4.13c.23-.5,.49-1,.75-1.49l-11.54-5.84c-.57-.29-.98-.84-1.08-1.48-.1-.63,.11-1.28,.56-1.74l1.88-1.89c1.16-1.15,2.81-1.65,4.4-1.34l13.7,2.7,4.37-4.37c1.12-1.12,3.07-1.12,4.18,0l3.06,3.06c1,1,1.13,2.54,.4,3.69l11.8,2.33,7.59-7.59c2.38-2.38,5.18-4.19,8.34-5.38l3.28-1.24c1.37-.51,2.86-.2,3.9,.84,1.03,1.04,1.36,2.53,.84,3.9Z"/></g></g></svg>