<?xml version="1.0" encoding="UTF-8"?><svg id="Layer_2" xmlns="http://www.w3.org/2000/svg" viewBox="0 0 255.02 197.79"><defs><style>.cls-1{fill:#14a0de;}.cls-2{fill:#203a72;}</style></defs><g id="Layer_1-2"><g><path class="cls-1" d="M202.96,46.72l-5.13-42.07c-.33-2.89-2.97-4.97-5.87-4.6L4.68,22.85C1.74,23.22-.29,25.87,.03,28.76L15.68,156.9c.33,2.89,2.98,4.97,5.87,4.6l22.81-2.77V63.42c0-9.2,7.5-16.7,16.7-16.7H202.96Z"/><rect class="cls-2" x="199.08" y="97.62" width="16.43" height="22.63"/><path class="cls-2" d="M249.72,58.11H61.06c-2.92,0-5.29,2.37-5.29,5.29V192.49c0,2.92,2.37,5.29,5.29,5.29H249.72c2.92,0,5.29-2.37,5.29-5.29V63.41c0-2.92-2.37-5.29-5.29-5.29ZM89.57,107.52h34.37c3.15,0,5.7,2.55,5.7,5.7s-2.55,5.7-5.7,5.7h-34.37c-3.15,0-5.7-2.55-5.7-5.7s2.55-5.7,5.7-5.7Zm68.74,62.16H89.57c-3.15,0-5.7-2.55-5.7-5.7s2.55-5.7,5.7-5.7h68.74c3.15,0,5.7,2.55,5.7,5.7s-2.55,5.7-5.7,5.7Zm0-25.38H89.57c-3.15,0-5.7-2.55-5.7-5.7s2.55-5.7,5.7-5.7h68.74c3.15,0,5.7,2.55,5.7,5.7s-2.55,5.7-5.7,5.7Zm68.61-18.35c0,3.15-2.55,5.7-5.7,5.7h-27.84c-3.15,0-5.7-2.55-5.7-5.7v-34.04c0-3.15,2.55-5.7,5.7-5.7h27.84c3.15,0,5.7,2.55,5.7,5.7v34.04Z"/></g></g></svg>