<?xml version="1.0" encoding="UTF-8"?><svg id="Layer_2" xmlns="http://www.w3.org/2000/svg" viewBox="0 0 307.99 229.06"><defs><style>.cls-1{fill:#14a0de;}.cls-2{fill:#203a72;}</style></defs><g id="Layer_1-2"><g><path class="cls-2" d="M296.64,121.5h-23.04v-48.66l14.76-16.55c2.43-2.6,3.73-6,3.73-9.57v-15.9c0-4.38-3.56-7.79-7.95-7.79h-20.76V8.11c0-4.54-3.57-8.11-8.11-8.11s-8.11,3.57-8.11,8.11v14.93h-20.76c-4.38,0-7.95,3.41-7.95,7.79v15.9c0,3.56,1.3,6.97,3.73,9.57l14.6,16.55v48.66H124.7c-20.93,6.81-43.47,14.27-57.91,18.65v77.55c0,6.33,5.2,11.36,11.36,11.36h218.49c6.16,0,11.35-5.03,11.35-11.36v-84.85c0-6.33-5.19-11.36-11.35-11.36Zm-157.18,39.89c0,2.27-1.78,3.89-4.06,3.89h-31.79c-2.27,0-3.89-1.62-3.89-3.89v-10.55c0-2.11,1.62-3.89,3.89-3.89h31.79c2.27,0,4.06,1.78,4.06,3.89v10.55Zm67.8,0c0,2.27-1.78,3.89-3.89,3.89h-31.96c-2.11,0-3.89-1.62-3.89-3.89v-10.55c0-2.11,1.78-3.89,3.89-3.89h31.96c2.11,0,3.89,1.78,3.89,3.89v10.55Zm67.8,0c0,2.27-1.62,3.89-3.9,3.89h-31.79c-2.27,0-4.06-1.62-4.06-3.89v-10.55c0-2.11,1.78-3.89,4.06-3.89h31.79c2.27,0,3.9,1.78,3.9,3.89v10.55Zm-135.61,37.66c0,2.27-1.78,3.89-4.06,3.89h-31.79c-2.27,0-3.89-1.62-3.89-3.89v-10.55c0-2.11,1.62-3.89,3.89-3.89h31.79c2.27,0,4.06,1.78,4.06,3.89v10.55Zm67.8,0c0,2.27-1.78,3.89-3.89,3.89h-31.96c-2.11,0-3.89-1.62-3.89-3.89v-10.55c0-2.11,1.78-3.89,3.89-3.89h31.96c2.11,0,3.89,1.78,3.89,3.89v10.55Zm67.8,0c0,2.27-1.62,3.89-3.9,3.89h-31.79c-2.27,0-4.06-1.62-4.06-3.89v-10.55c0-2.11,1.78-3.89,4.06-3.89h31.79c2.27,0,3.9,1.78,3.9,3.89v10.55Z"/><path class="cls-1" d="M186.43,87.04c7.08-2.57,9.83-11.11,5.66-17.38-6.55-9.85-19-13.96-30.14-9.91-8.26,3-16.4,6.28-24.61,9.41l-63.39-27.72c-1.14-.5-2.43-.54-3.6-.11l-9.99,3.62c-1.52,.55-1.93,2.5-.77,3.62l37.73,36.36c-13.12,5.39-26.24,10.79-39.22,16.51l-3.44,1.51c-1.17,.52-2.52,.34-3.51-.45l-8.43-6.71c-.71-.56-1.65-.71-2.5-.41l-12.35,4.49c-1.57,.57-2.2,2.46-1.28,3.86l13.09,19.94c3.49,5.32,10.05,7.74,16.17,5.97l11.33-3.28c13.6-3.93,98.04-31.62,106.35-34.65l12.9-4.69Z"/><path class="cls-1" d="M21.73,109.57c-.62-1.71-2.51-2.61-4.24-1.98l-15.3,5.57c-1.72,.62-2.61,2.52-1.98,4.24,.48,1.35,1.76,2.18,3.11,2.18,.37,0,.75-.07,1.13-.2l15.31-5.57c1.72-.62,2.6-2.52,1.98-4.24Z"/><path class="cls-1" d="M28.59,120.44c-.62-1.72-2.52-2.61-4.24-1.98l-15.31,5.56c-1.72,.62-2.6,2.52-1.98,4.25,.49,1.34,1.76,2.18,3.11,2.18,.38,0,.76-.07,1.14-.2l15.31-5.56c1.72-.62,2.6-2.52,1.97-4.24Z"/><path class="cls-1" d="M31.22,129.34l-15.3,5.56c-1.72,.62-2.61,2.52-1.98,4.24,.48,1.35,1.76,2.18,3.11,2.18,.38,0,.76-.06,1.13-.2l15.3-5.56c1.72-.62,2.61-2.52,1.98-4.24-.62-1.72-2.51-2.59-4.24-1.97Z"/></g></g></svg>