<?xml version="1.0" encoding="UTF-8"?><svg id="Layer_2" xmlns="http://www.w3.org/2000/svg" viewBox="0 0 457.13 447.27"><defs><style>.cls-1{fill:#fff;}.cls-2,.cls-3{stroke-width:20.53px;}.cls-2,.cls-3,.cls-4{fill:none;stroke-linecap:round;stroke-linejoin:round;}.cls-2,.cls-4{stroke:#fff;}.cls-3{stroke:#1b3666;}.cls-4{stroke-width:23.95px;}.cls-5{fill:#1f9ddb;}.cls-6{fill:#1b3666;}</style></defs><g id="_ëîé_1"><g><path class="cls-6" d="M63.71,75.11c.39-4.18,3.92-7.36,8.12-7.32l40.22,.42c.4-.33,.91-.5,1.43-.5h185c1.21,0,2.23,.9,2.38,2.1l43.61,344.79c.2,1.57-.93,2.97-2.4,2.97H12.64c-1.43,0-2.55-1.34-2.41-2.88L63.71,75.11Z"/><line class="cls-2" x1="115.78" y1="66.65" x2="141.7" y2="421.32"/><polyline class="cls-2" points="10.26 430.72 74.41 376.52 137.06 437"/><line class="cls-2" x1="74.48" y1="300.9" x2="74.48" y2="376.52"/><path class="cls-3" d="M172.75,67.71v-10.06c0-26.17,21.22-47.39,47.39-47.39h0c26.17,0,47.39,21.22,47.39,47.39v10.06"/><path class="cls-3" d="M95.05,67.71v-10.06c0-26.17,21.22-47.39,47.39-47.39h0c3.23,0,6.39,.32,9.45,.94"/><g><path class="cls-1" d="M340.5,359.9c-64.31,0-116.63-52.32-116.63-116.63s52.33-116.63,116.63-116.63,116.63,52.32,116.63,116.63-52.32,116.63-116.63,116.63Z"/><g><circle class="cls-5" cx="340.5" cy="243.27" r="92.12" transform="translate(-72.29 312.02) rotate(-45)"/><g><path class="cls-4" d="M316.25,273.86c3.89,8.12,13.28,13.85,24.25,13.85,14.45,0,26.17-9.95,26.17-22.22,0-32-52.34-10.78-52.34-44.43,0-12.27,11.72-22.22,26.17-22.22,11.25,0,20.84,6.03,24.54,14.49"/><line class="cls-4" x1="340.5" y1="287.71" x2="340.5" y2="302.99"/><line class="cls-4" x1="340.5" y1="183.43" x2="340.5" y2="198.84"/></g></g></g></g></g></svg>