<?xml version="1.0" encoding="UTF-8"?><svg id="Layer_2" xmlns="http://www.w3.org/2000/svg" viewBox="0 0 246 225.37"><defs><style>.cls-1{fill:#14a0de;}.cls-2{fill:#203a72;}</style></defs><g id="Layer_1-2"><g><g><path class="cls-1" d="M138.72,152.79h-6.96v-20.9h2.74c1.66,0,3-1.35,3-3.01s-1.35-3.01-3-3.01h-27.31c-1.66,0-3,1.35-3,3.01s1.35,3.01,3,3.01h2.74v20.9h-6.96c-4.48,0-8.12,3.64-8.12,8.12v47.24c0,3.53,2.27,6.5,5.42,7.62-.03,.28-.08,.55-.08,.83,0,4.84,3.94,8.78,8.78,8.78s8.78-3.94,8.78-8.78c0-.12-.03-.22-.03-.34h6.26c0,.11-.03,.22-.03,.34,0,4.84,3.94,8.78,8.78,8.78s8.78-3.94,8.78-8.78c0-.29-.06-.56-.08-.83,3.15-1.12,5.42-4.09,5.42-7.62v-47.24c0-4.48-3.63-8.12-8.12-8.12Zm-22.77-20.9h9.8v20.9h-9.8v-20.9Zm-6.97,88.07c-1.86,0-3.37-1.51-3.37-3.37s1.52-3.37,3.37-3.37,3.37,1.51,3.37,3.37-1.51,3.37-3.37,3.37Zm1.89-47.81c-1.55,0-2.81-1.26-2.81-2.81s1.26-2.81,2.81-2.81h19.97c1.55,0,2.81,1.26,2.81,2.81s-1.26,2.81-2.81,2.81h-19.97Zm21.85,47.81c-1.86,0-3.37-1.51-3.37-3.37s1.51-3.37,3.37-3.37,3.37,1.51,3.37,3.37-1.51,3.37-3.37,3.37Z"/><path class="cls-2" d="M32.13,55.23c0,10.82,8.77,19.59,19.59,19.59s19.59-8.77,19.59-19.59-8.77-19.59-19.59-19.59-19.59,8.77-19.59,19.59Z"/><path class="cls-2" d="M96.12,143.99l-2.42-22.46,.46,.12c4.38,1.16,8.8-1.46,9.96-5.84,1.12-4.33-1.46-8.8-5.84-9.96l-6.44-1.67-1.32-12.24c-.15-1.35-1.21-2.43-2.56-2.59l-12.74-1.52c-3.23-4.96-6.1-8.07-10.89-8.07h-25.2c-6.01,0-9.02,4.89-13.53,12.23-.25,.4-.55,.88-.81,1.3l-13.32-1.59c-.88-.09-1.77,.19-2.4,.82-.64,.63-.95,1.51-.85,2.4l1.64,15.19-6.79,5.45c-3.52,2.84-4.08,7.98-1.24,11.46,1.63,2.02,3.99,3.05,6.36,3.05,1.29,0,2.54-.4,3.72-1l1.93,17.91c.15,1.36,1.21,2.43,2.56,2.6l16.05,1.91-8.03,63.24c-.69,5.19,3,9.92,8.16,10.56,.43,.04,.81,.09,1.2,.09,4.68,0,8.76-3.48,9.36-8.29l8.54-67.36,.16-.06,8.51,67.41c.6,4.81,4.68,8.29,9.36,8.29,.39,0,.81-.05,1.21-.09,5.19-.64,8.84-5.37,8.19-10.56l-8.94-70.23,22.71,2.72c.22,.03,.44,.03,.66,0,.65-.07,1.27-.36,1.74-.83,.63-.62,.95-1.51,.85-2.39Zm-76.74,.03l-4.96-46.08,19.95,2.38,4.97,46.08-19.95-2.38Zm25.77,1.76l-4.96-46.08,18.98-6.58,4.97,46.08-18.98,6.58Zm24.8-7.21l-4.96-46.08,19.95,2.39,4.96,46.08-19.95-2.39Z"/></g><path class="cls-2" d="M112.6,43.63l12.48-11.43c.8-.73,1.84-1.14,2.93-1.14h44.29V6.52c0-3.6,2.91-6.52,6.51-6.52s6.51,2.92,6.51,6.52v9.71h44.29c1.08,0,2.13,.41,2.93,1.14l12.48,11.43c1.31,1.2,1.31,3.27,0,4.47l-12.48,11.43c-.8,.73-1.85,1.14-2.93,1.14h-44.29V212.45h5.2c5.52,0,9.99,4.48,9.99,10v1.61c0,.73-.59,1.31-1.31,1.31h-40.77c-.72,0-1.31-.59-1.31-1.31v-1.61c0-5.52,4.47-10,9.99-10h5.2V60.67h-44.29c-1.08,0-2.13-.41-2.93-1.14l-12.48-11.43c-1.31-1.2-1.31-3.27,0-4.47Z"/></g></g></svg>