<?xml version="1.0" encoding="UTF-8"?><svg id="Layer_2" xmlns="http://www.w3.org/2000/svg" viewBox="0 0 415.28 415.28"><defs><style>.cls-1{fill:#fff;}.cls-2{stroke:#1b3666;}.cls-2,.cls-3{stroke-width:23.95px;}.cls-2,.cls-3,.cls-4{fill:none;stroke-linecap:round;stroke-linejoin:round;}.cls-3,.cls-4{stroke:#fff;}.cls-5{fill:#1f9ddb;}.cls-4{stroke-width:17.1px;}.cls-6{fill:#1b3666;}</style></defs><g id="_ëîé_1"><g><path class="cls-6" d="M210.25,1.83c-.89-2.44-4.34-2.44-5.22,0l-21.48,59.12h48.18L210.25,1.83Z"/><path class="cls-6" d="M355.02,63.96c1.1-2.35-1.34-4.79-3.69-3.69l-56.99,26.62,17.04,17.04,17.04,17.04,26.62-56.99Z"/><path class="cls-6" d="M413.45,210.25c2.44-.89,2.44-4.34,0-5.22l-59.12-21.48v48.18l59.12-21.48Z"/><path class="cls-6" d="M351.33,355.02c2.35,1.1,4.79-1.34,3.69-3.69l-26.62-56.99-17.04,17.04-17.04,17.04,56.99,26.62Z"/><path class="cls-6" d="M205.03,413.45c.89,2.44,4.34,2.44,5.22,0l21.48-59.12h-48.18l21.48,59.12Z"/><path class="cls-6" d="M60.26,351.33c-1.1,2.35,1.34,4.79,3.69,3.69l56.99-26.62-17.04-17.04-17.04-17.04-26.62,56.99Z"/><path class="cls-6" d="M1.83,205.03c-2.44,.89-2.44,4.34,0,5.22l59.12,21.48v-48.18L1.83,205.03Z"/><path class="cls-6" d="M63.96,60.26c-2.35-1.1-4.79,1.34-3.69,3.69l26.62,56.99,17.04-17.04,17.04-17.04-56.99-26.62Z"/><circle class="cls-2" cx="207.64" cy="207.64" r="153.43" transform="translate(-86.01 207.64) rotate(-45)"/><circle class="cls-5" cx="207.64" cy="207.64" r="119.16"/><line class="cls-3" x1="79.7" y1="207.64" x2="118.97" y2="207.64"/><line class="cls-3" x1="296.31" y1="207.64" x2="335.59" y2="207.64"/><line class="cls-3" x1="207.64" y1="335.59" x2="207.64" y2="296.31"/><line class="cls-3" x1="207.64" y1="118.97" x2="207.64" y2="79.7"/><line class="cls-4" x1="137.67" y1="137.67" x2="122.9" y2="122.9"/><line class="cls-4" x1="137.67" y1="277.61" x2="122.9" y2="292.39"/><line class="cls-4" x1="277.61" y1="277.61" x2="292.39" y2="292.39"/><line class="cls-4" x1="277.61" y1="137.67" x2="292.39" y2="122.9"/><polyline class="cls-3" points="241.44 158.39 207.64 207.64 225.99 236.78"/><circle class="cls-1" cx="207.64" cy="207.64" r="20.41" transform="translate(-63.66 95.27) rotate(-22.5)"/></g></g></svg>