<?xml version="1.0" encoding="UTF-8"?><svg id="Layer_2" xmlns="http://www.w3.org/2000/svg" viewBox="0 0 281.83 242.82"><defs><style>.cls-1{fill:#14a0de;}.cls-2{fill:#203a72;}</style></defs><g id="Layer_1-2"><g><path class="cls-1" d="M178.16,177.15h-25.25c-9.73,0-17.64-7.91-17.64-17.64s7.91-17.64,17.64-17.64h57.71c-.1-.25-.15-.45-.25-.71-1.66-4.99-3.38-9.78-5.09-14.42h-52.37c-18.04,0-32.76,14.72-32.76,32.76s14.72,32.76,32.76,32.76h25.25c9.73,0,17.64,7.91,17.64,17.64s-7.91,17.64-17.64,17.64H76.4c-1.66,4.49-3.32,9.17-4.94,13.91-.15,.4-.3,.81-.45,1.21h107.16c18.05,0,32.76-14.67,32.76-32.76s-14.72-32.76-32.76-32.76Z"/><path class="cls-2" d="M96.84,148.72c0-27.52-22.96-49.68-50.77-48.37C21.08,101.54,.71,122.35,.02,147.36c-.33,11.97,3.7,22.98,10.61,31.59,10.21,12.71,18.04,27.18,23.7,42.47,1.95,5.28,3.76,10.4,5.38,15.16,2.84,8.31,14.58,8.31,17.42,0,1.62-4.75,3.43-9.87,5.38-15.15,5.58-15.1,13.06-29.57,23.3-41.99,6.89-8.35,11.03-19.05,11.03-30.72Zm-48.42,23.22c-12.82,0-23.22-10.39-23.22-23.22s10.4-23.22,23.22-23.22,23.22,10.4,23.22,23.22-10.4,23.22-23.22,23.22Z"/><path class="cls-2" d="M231.06,.06c-24.99,1.18-45.37,21.99-46.06,47-.33,11.97,3.7,22.98,10.61,31.59,10.21,12.71,18.04,27.18,23.7,42.47,1.95,5.28,3.76,10.4,5.38,15.16,2.84,8.31,14.58,8.31,17.42,0,1.62-4.75,3.43-9.87,5.38-15.15,5.58-15.1,13.07-29.57,23.3-41.99,6.89-8.35,11.03-19.05,11.03-30.72C281.83,20.9,258.87-1.26,231.06,.06Zm2.35,71.58c-12.82,0-23.22-10.4-23.22-23.22s10.4-23.22,23.22-23.22,23.22,10.4,23.22,23.22-10.4,23.22-23.22,23.22Z"/></g></g></svg>