<svg xmlns="http://www.w3.org/2000/svg" version="1.1" xmlns:xlink="http://www.w3.org/1999/xlink" xmlns:svgjs="http://svgjs.com/svgjs" width="512" height="512" x="0" y="0" viewBox="0 0 64 64" style="enable-background:new 0 0 512 512" xml:space="preserve" class=""><g><path d="M46.414 23.452a.75.75 0 1 1-1.45.388.75.75 0 0 1 1.45-.388zm-5.307.645a.75.75 0 1 0 .388 1.448.75.75 0 0 0-.388-1.448zm-4.388 1.176a.75.75 0 1 0 .388 1.448.75.75 0 0 0-.388-1.448zm-4.388 1.176a.75.75 0 1 0 .388 1.448.75.75 0 0 0-.388-1.448zm-4.388 1.175a.75.75 0 1 0 .388 1.448.75.75 0 0 0-.388-1.448zm34.802-.197c-1.105 1.171-2.841 2.1-5.022 2.684l-15.454 4.14-4.294 7.166a12.944 12.944 0 0 1-6.321 5.361l-5.827 2.298a1.338 1.338 0 0 1-1.525-.378 1.345 1.345 0 0 1-.148-1.564l5.584-9.671c-3.907.833-7.295 1.275-10.175 1.275-2.86 0-5.234-.432-7.243-1.252l-1.414 2.45a4.359 4.359 0 0 1-2.665 2.045l-1.719.46a1.34 1.34 0 0 1-1.355-.398 1.35 1.35 0 0 1-.268-1.384l2.507-6.746c-.038-.046-.078-.089-.115-.135a716.965 716.965 0 0 1-7.003-8.774A1.339 1.339 0 0 1 1 22.877l4.342-1.164a2.559 2.559 0 0 1 2.41.596l5.82 5.387 12.959-3.473-10.073-5.816c-.507-.292-.764-.852-.655-1.427s.554-1.003 1.132-1.089l6.196-.924c2.789-.418 5.687.11 8.156 1.481l4.001 2.224a.75.75 0 1 1-.727 1.311l-4.002-2.224a11.447 11.447 0 0 0-7.206-1.309l-5.788.863 11.016 6.36 20.491-5.491c4.004-1.072 6.891.651 8.614 1.682.308.184.575.346.803.458 2.25.325 4.871 1.585 5.419 3.632.296 1.109-.128 2.375-1.163 3.473zm-31.998 8.289 1.44-2.494-14.672 3.931c3.464.29 7.805-.189 13.232-1.437zm31.711-11.372c-.359-1.34-2.475-2.313-4.283-2.55a.714.714 0 0 1-.212-.06 8.447 8.447 0 0 1-.742-.402l-4.898 1.312a.753.753 0 0 1-.919-.53.76.76 0 0 1 .53-.919l3.403-.912c-1.505-.731-3.445-1.303-5.878-.651l-35.899 9.62a.747.747 0 0 1-.704-.174L6.734 23.41a1.061 1.061 0 0 0-1.003-.248l-4.116 1.103c.86 1.096 3.323 4.222 6.843 8.569.119.147.24.291.365.43.19.213.225.502.135.752l.008.006-2.563 6.896 1.451-.388a2.87 2.87 0 0 0 1.754-1.347l3.42-5.923-2.018.541a.756.756 0 0 1-.919-.53.75.75 0 0 1 .53-.919l2.352-.631a1.356 1.356 0 0 1 1.526 1.988l-1.421 2.461c.32.124.634.254.977.356l19.193-5.144.496-.859a.75.75 0 1 1 1.299.749L25.66 47.529l5.445-2.147a11.424 11.424 0 0 0 5.584-4.735l7.794-13.006a.75.75 0 0 1 1.029-.258.737.737 0 0 1 .35.624l13.651-3.658a.75.75 0 0 1 .388 1.449l-14.969 4.011-1.555 2.595 13.957-3.74c2.416-.647 3.682-1.588 4.319-2.264.661-.702.962-1.47.805-2.056zM23.555 28.8a.75.75 0 1 0 .388 1.448.75.75 0 0 0-.388-1.448z" fill="#000000" data-original="#000000" class=""></path></g></svg>
