<?xml version="1.0" encoding="UTF-8"?><svg id="Layer_2" xmlns="http://www.w3.org/2000/svg" viewBox="0 0 225.34 235.63"><defs><style>.cls-1{fill:#14a0de;}.cls-2{fill:#203a72;}</style></defs><g id="Layer_1-2"><g><path class="cls-1" d="M191.39,95.73c-18.75,0-33.95,15.22-33.95,34s15.2,34,33.95,34,33.95-15.22,33.95-34-15.2-34-33.95-34Zm13.02,38.81h-13.02c-2.65,0-4.8-2.15-4.8-4.8v-17.73c0-2.66,2.15-4.81,4.8-4.81s4.8,2.16,4.8,4.81v12.92h8.22c2.65,0,4.8,2.16,4.8,4.81s-2.15,4.8-4.8,4.8Z"/><path class="cls-2" d="M25.83,76.55c1.71,.46,3.65-.11,4.67-1.59,3.53-4.91,8.89-7.76,14.7-7.76,6.38,0,12.31,3.42,15.49,9.01,.68,1.26,2.16,2.05,3.65,2.05s2.85-.8,3.65-2.05c3.19-5.59,9.11-9.01,15.38-9.01,4.67,0,9,1.82,12.3,5.02v74.38l13.44-2.51V72.33c3.3-3.19,7.75-5.13,12.41-5.13,6.27,0,12.08,3.31,15.39,8.9,.8,1.26,2.16,2.05,3.65,2.05,1.59,.23,2.85-.79,3.64-2.05,3.19-5.48,9.11-8.9,15.39-8.9,5.81,0,11.16,2.85,14.81,7.76,1.03,1.48,2.96,2.05,4.67,1.48,1.71-.46,2.85-2.17,2.85-3.99,0-.34,0-.8-.12-1.71-1.93-32.63-32.81-57.5-72.68-60.12v-4c0-3.65-2.96-6.62-6.72-6.62s-6.72,2.97-6.72,6.62v4C55.8,13.24,25.03,38.1,22.98,71.31c0,.11-.11,1.03-.11,1.14,0,1.82,1.25,3.53,2.96,4.11Z"/><path class="cls-2" d="M169.24,194.75H60.47L15.33,135.83c-2.88-3.75-8.24-4.46-11.98-1.58-3.74,2.88-4.45,8.25-1.57,12l47.71,62.28c1.61,2.11,4.12,3.35,6.78,3.35h11.24l-4.85,11.99c-1.77,4.38,.33,9.37,4.71,11.15,1.05,.42,2.13,.63,3.2,.63,3.38,0,6.58-2.02,7.92-5.35l7.45-18.42h54.06l7.45,18.42c1.35,3.33,4.55,5.35,7.92,5.35,1.07,0,2.15-.2,3.21-.63,4.37-1.77,6.48-6.76,4.71-11.15l-4.85-11.99h10.81c4.72,0,8.54-3.84,8.54-8.56s-3.83-8.56-8.54-8.56Z"/><path class="cls-2" d="M112.87,153.17l-.58,.12-32.39,6.88-15.85-24.25c-.2-.29-.42-.61-.65-.9-4.64-5.97-13.23-7.05-19.2-2.41-5.97,4.64-7.04,13.25-2.4,19.22l22.58,29.08,.5,.66c2.8,3.6,7.57,5.37,12.25,4.11l37.56-10.06,35.01,10.61c5.03,1.51,10.46-1.14,12.28-6.15,1.89-5.19-.78-10.93-5.97-12.82l-37.63-13.72c-1.7-.61-3.62-.79-5.51-.39Z"/><path class="cls-2" d="M30.38,130.68c9.1,0,16.47-7.38,16.47-16.49s-7.37-16.49-16.47-16.49-16.46,7.38-16.46,16.49,7.37,16.49,16.46,16.49Z"/></g></g></svg>