<svg xmlns="http://www.w3.org/2000/svg" version="1.1" xmlns:xlink="http://www.w3.org/1999/xlink" xmlns:svgjs="http://svgjs.com/svgjs" width="512" height="512" x="0" y="0" viewBox="0 0 64 64" style="enable-background:new 0 0 512 512" xml:space="preserve" class=""><g><g data-name="Layer 51"><path d="m46.67 29.71-6.49-13a.78.78 0 0 0-1.34 0l-6.49 13a.75.75 0 0 0 1.35.67l1.74-3.5h8.15l1.74 3.5a.75.75 0 0 0 .67.41.64.64 0 0 0 .33-.08.73.73 0 0 0 .34-1zm-10.49-4.33 3.33-6.7 3.33 6.7zM45.34 46.25H35.29L45.9 34.46a.75.75 0 0 0-.56-1.25H33.61a.75.75 0 0 0 0 1.5h10L33.05 46.5a.75.75 0 0 0 .56 1.25h11.73a.75.75 0 0 0 0-1.5zM27.85 22.81a.75.75 0 1 0 1.07-1l-5.19-5.29a.79.79 0 0 0-1.07 0l-5.2 5.29a.75.75 0 0 0 0 1.06.75.75 0 0 0 1.06 0l3.91-3.94v26.2l-3.91-3.94a.75.75 0 0 0-1.06 0 .75.75 0 0 0 0 1.06l5.2 5.29a.75.75 0 0 0 .53.22.77.77 0 0 0 .54-.22l5.19-5.29a.75.75 0 1 0-1.07-1.05l-3.91 4V18.83z" fill="#000000" data-original="#000000" class=""></path><path d="M49.46 60.75H14.54A11.3 11.3 0 0 1 3.25 49.46V14.54A11.3 11.3 0 0 1 14.54 3.25h34.92a11.3 11.3 0 0 1 11.29 11.29v34.92a11.3 11.3 0 0 1-11.29 11.29zm-34.92-56a9.8 9.8 0 0 0-9.79 9.79v34.92a9.8 9.8 0 0 0 9.79 9.79h34.92a9.8 9.8 0 0 0 9.79-9.79V14.54a9.8 9.8 0 0 0-9.79-9.79z" fill="#000000" data-original="#000000" class=""></path></g></g></svg>
