<svg xmlns="http://www.w3.org/2000/svg" version="1.1" xmlns:xlink="http://www.w3.org/1999/xlink" xmlns:svgjs="http://svgjs.com/svgjs" width="512" height="512" x="0" y="0" viewBox="0 0 682.667 682.667" style="enable-background:new 0 0 512 512" xml:space="preserve" class=""><g><defs><clipPath id="a" clipPathUnits="userSpaceOnUse"><path d="M0 512h512V0H0Z" fill="#000000" data-original="#000000"></path></clipPath></defs><g clip-path="url(#a)" transform="matrix(1.33333 0 0 -1.33333 0 682.667)"><path d="M0 0c-5.551 19.285-25.309 30.609-44.63 25.906V-5.643c17.857-.415 32.598-13.373 35.771-30.405C-.024-26.773 3.799-13.198 0 0Z" style="stroke-width:15;stroke-linecap:round;stroke-linejoin:round;stroke-miterlimit:10;stroke-dasharray:none;stroke-opacity:1" transform="translate(64.802 226.928)" fill="none" stroke="#000000" stroke-width="15" stroke-linecap="round" stroke-linejoin="round" stroke-miterlimit="10" stroke-dasharray="none" stroke-opacity="" data-original="#000000" class=""></path><path d="M0 0h265.41c19.569 0 35.43 15.861 35.43 35.43v44.222c-.295-.01-.589-.022-.884-.022-20.595 0-37.296 16.701-37.296 37.296s16.701 37.295 37.296 37.295c.295 0 .589-.011.884-.021v8.067a35.37 35.37 0 0 0-10.368-4.919L-92.188 47.207c-18.807-5.414-38.436 5.441-43.848 24.248l-5.776 20.068c-6.623-7.106-15.981-11.628-26.405-11.871V35.43c0-19.569 15.862-35.43 35.431-35.43h96.321" style="stroke-width:15;stroke-linecap:round;stroke-linejoin:round;stroke-miterlimit:10;stroke-dasharray:none;stroke-opacity:1" transform="translate(188.389 67.086)" fill="none" stroke="#000000" stroke-width="15" stroke-linecap="round" stroke-linejoin="round" stroke-miterlimit="10" stroke-dasharray="none" stroke-opacity="" data-original="#000000" class=""></path><path d="M0 0c5.696-19.792 26.365-31.221 46.156-25.524.283.081.564.173.843.265l12.232-42.497c5.414-18.806-5.442-38.435-24.248-43.848l-382.66-110.141c-18.806-5.413-38.435 5.442-43.847 24.248L-403.757-155c19.274 6.035 30.297 26.382 24.682 45.891-5.615 19.508-25.769 30.881-45.302 25.747l-10.608 36.858c-5.413 18.805 5.442 38.435 24.248 43.847l382.66 110.142c18.806 5.412 38.435-5.442 43.848-24.248L26.38 46.38c-.286-.071-.572-.142-.856-.224C5.733 40.46-5.696 19.792 0 0Z" style="stroke-width:15;stroke-linecap:round;stroke-linejoin:round;stroke-miterlimit:10;stroke-dasharray:none;stroke-opacity:1" transform="translate(443.877 336.038)" fill="none" stroke="#000000" stroke-width="15" stroke-linecap="round" stroke-linejoin="round" stroke-miterlimit="10" stroke-dasharray="none" stroke-opacity="" data-original="#000000" class=""></path><path d="m0 0-63.061 219.088" style="fill-opacity:1;fill-rule:nonzero;stroke:none" transform="translate(357.765 189.579)" fill="#fdf7e7" data-original="#fdf7e7"></path><path d="m0 0-2.904 10.09" style="stroke-width:15;stroke-linecap:round;stroke-linejoin:round;stroke-miterlimit:4;stroke-dasharray:none;stroke-opacity:1" transform="translate(357.764 189.579)" fill="none" stroke="#000000" stroke-width="15" stroke-linecap="round" stroke-linejoin="round" stroke-miterlimit="4" stroke-dasharray="none" stroke-opacity="" data-original="#000000" class=""></path><path d="m0 0-42.073 146.174" style="stroke-width:15;stroke-linecap:round;stroke-linejoin:round;stroke-miterlimit:4;stroke-dasharray:20.217, 36.583;stroke-dashoffset:0;stroke-opacity:1" transform="translate(344.741 234.825)" fill="none" stroke="#000000" stroke-width="15" stroke-linecap="round" stroke-linejoin="round" stroke-miterlimit="4" stroke-dasharray="20.217, 36.583" stroke-dashoffset="0" stroke-opacity="" data-original="#000000" class=""></path><path d="m0 0-2.904 10.09" style="stroke-width:15;stroke-linecap:round;stroke-linejoin:round;stroke-miterlimit:4;stroke-dasharray:none;stroke-opacity:1" transform="translate(297.608 398.577)" fill="none" stroke="#000000" stroke-width="15" stroke-linecap="round" stroke-linejoin="round" stroke-miterlimit="4" stroke-dasharray="none" stroke-opacity="" data-original="#000000" class=""></path><path d="m0 0-46.799 44.306-23.062-6.639 35.17-49.501A8382.256 8382.256 0 0 0 0 0Z" style="stroke-width:15;stroke-linecap:round;stroke-linejoin:round;stroke-miterlimit:10;stroke-dasharray:none;stroke-opacity:1" transform="translate(214.295 285.748)" fill="none" stroke="#000000" stroke-width="15" stroke-linecap="round" stroke-linejoin="round" stroke-miterlimit="10" stroke-dasharray="none" stroke-opacity="" data-original="#000000" class=""></path><path d="m0 0-3.472-60.625 23.062 6.638L35.675 8.419A8250.971 8250.971 0 0 0 0 0Z" style="stroke-width:15;stroke-linecap:round;stroke-linejoin:round;stroke-miterlimit:10;stroke-dasharray:none;stroke-opacity:1" transform="translate(187.733 245.668)" fill="none" stroke="#000000" stroke-width="15" stroke-linecap="round" stroke-linejoin="round" stroke-miterlimit="10" stroke-dasharray="none" stroke-opacity="" data-original="#000000" class=""></path><path d="m0 0-76.523-22.026-8.512 29.574 76.523 22.026Z" style="stroke-width:15;stroke-linecap:round;stroke-linejoin:round;stroke-miterlimit:10;stroke-dasharray:none;stroke-opacity:1" transform="translate(420.922 380.295)" fill="none" stroke="#000000" stroke-width="15" stroke-linecap="round" stroke-linejoin="round" stroke-miterlimit="10" stroke-dasharray="none" stroke-opacity="" data-original="#000000" class=""></path><path d="m0 0 40.883 11.768" style="fill-opacity:1;fill-rule:nonzero;stroke:#000000;stroke-width:15;stroke-linecap:round;stroke-linejoin:round;stroke-miterlimit:10;stroke-dasharray:none;stroke-opacity:1" transform="translate(413.5 268.052)" data-original="#000000"></path><path d="m0 0 40.883 11.767" style="fill-opacity:1;fill-rule:nonzero;stroke:#000000;stroke-width:15;stroke-linecap:round;stroke-linejoin:round;stroke-miterlimit:10;stroke-dasharray:none;stroke-opacity:1" transform="translate(421.043 241.846)" data-original="#000000"></path><path d="m0 0 57.655 16.595" style="fill-opacity:1;fill-rule:nonzero;stroke:#000000;stroke-width:15;stroke-linecap:round;stroke-linejoin:round;stroke-miterlimit:10;stroke-dasharray:none;stroke-opacity:1" transform="translate(89.917 157.889)" data-original="#000000"></path><path d="m0 0 16.595-57.655-41.931-12.069-16.595 57.655z" style="stroke-width:15;stroke-linecap:round;stroke-linejoin:round;stroke-miterlimit:10;stroke-dasharray:none;stroke-opacity:1" transform="translate(305.528 236.975)" fill="none" stroke="#000000" stroke-width="15" stroke-linecap="round" stroke-linejoin="round" stroke-miterlimit="10" stroke-dasharray="none" stroke-opacity="" data-original="#000000" class=""></path><path d="M439.05 98.72h-83.993v29.453h83.993z" style="stroke-width:15;stroke-linecap:round;stroke-linejoin:round;stroke-miterlimit:10;stroke-dasharray:none;stroke-opacity:1" fill="none" stroke="#000000" stroke-width="15" stroke-linecap="round" stroke-linejoin="round" stroke-miterlimit="10" stroke-dasharray="none" stroke-opacity="" data-original="#000000" class=""></path><path d="M0 0h-80.872" style="fill-opacity:1;fill-rule:nonzero;stroke:#000000;stroke-width:15;stroke-linecap:round;stroke-linejoin:round;stroke-miterlimit:10;stroke-dasharray:none;stroke-opacity:1" transform="translate(317.81 114.97)" data-original="#000000"></path><path d="M0 0s114.548 39.781 128.175 43.703c13.628 3.922 28.938-9.832 28.938-9.832s-5.655-19.79-19.283-23.712C124.203 6.236 6.034-20.966 6.034-20.966l-14.171-4.861-19.252 32.938Z" style="stroke-width:15;stroke-linecap:round;stroke-linejoin:round;stroke-miterlimit:10;stroke-dasharray:none;stroke-opacity:1" transform="translate(111.014 250.23)" fill="none" stroke="#000000" stroke-width="15" stroke-linecap="round" stroke-linejoin="round" stroke-miterlimit="10" stroke-dasharray="none" stroke-opacity="" data-original="#000000" class=""></path></g></g></svg>
